# xmcd
#
# Track frame offsets:
#	150
#	11571
#	22362
#	32583
#	40792
#	53046
#	63454
#	78038
#	91128
#	105245
#	118142
#	130831
#	151550
#
# Disc length: 2212 seconds
#
# Revision: 0
# Processed by: cddbd v1.5.2PL0 Copyright (c) Steve Scherf et al.
# Submitted via: audiograbber 1.83.01
#
DISCID=9208a20d
DTITLE=Dave Arcari - Got Me Electric
DYEAR=2009
DGENRE=Blues
TTITLE0=Got Me Electric
TTITLE1=Nobody's Fool
TTITLE2=You Oughta Know
TTITLE3=No Easy Way
TTITLE4=Close To The Edge
TTITLE5=One More Heartbreak
TTITLE6=Soul Of A Man
TTITLE7=Parcel Of Rouges
TTITLE8=Hear Me Coming
TTITLE9=Homesick and Blue
TTITLE10=Journeytime Is Over
TTITLE11=Walkin Blues
TTITLE12=Bound To Ride
EXTD=
EXTT0=
EXTT1=
EXTT2=
EXTT3=
EXTT4=
EXTT5=
EXTT6=
EXTT7=
EXTT8=
EXTT9=
EXTT10=
EXTT11=
EXTT12=
PLAYORDER=
